<?xml version="1.0" encoding="UTF-8"?>
<svg id="Vrstva_1" data-name="Vrstva 1" xmlns="http://www.w3.org/2000/svg" viewBox="0 0 414.74 341.66">
  <defs>
    <style>
      .cls-1 {
        fill: #fff;
      }

      .cls-1, .cls-2 {
        stroke-width: 0px;
      }

      .cls-2 {
        fill: #359381;
      }
    </style>
  </defs>
  <g>
    <path class="cls-2" d="M0,3.51C14.16,1.34,33.54-.61,56.55.18c17.14.59,39.47,1.51,66.53,9.98,22.3,6.98,48.71,15.25,69.86,39.92,5.8,6.76,18.93,22.46,23.29,46.57,1.4,7.75,7.89,49.65-19.96,73.18-10.64,8.99-22.5,12.09-29.94,13.31,0,0-4.55.93-11.81.99,0,0-14.13.19-28.11-4.31-26.87-8.66-53.22-53.22-53.22-53.22-25.66-43.39-19.96-63.03-46.57-96.47C16.75,17.72,6.85,8.98,0,3.51Z"/>
    <path class="cls-1" d="M103.12,53.4c11.65,3.04,53.51,15.5,79.83,56.55,13.37,20.85,17.71,41.24,19.28,53.97-1.59,1.84-3.57,3.87-5.97,5.9-2.12,1.8-4.18,3.26-6.04,4.44-1.28-13.49-5.68-40.22-23.89-67.64-21.78-32.8-50.77-47.7-63.2-53.22Z"/>
  </g>
  <g>
    <path class="cls-2" d="M414.74,116.92c-8.63-6.35-20.8-14.36-36.32-21.81-11.56-5.56-26.68-12.69-47.55-16.46-17.19-3.11-37.57-6.79-60.13,2.23-6.19,2.47-20.34,8.32-31.58,22.78-3.62,4.65-22.45,30.16-12.15,55.42,3.93,9.65,10.72,15.82,15.22,19.2,0,0,2.69,2.2,7.49,4.75,0,0,9.3,5.03,20.12,6.89,20.81,3.58,53.73-16.81,53.73-16.81,32.05-19.85,35.08-34.85,64.31-47.77,10.84-4.79,20.42-7.16,26.86-8.41Z"/>
    <path class="cls-1" d="M329.1,114.22c-8.77-2.02-40.83-8.28-72.51,9.79-16.09,9.18-26.04,21.19-31.49,29.08.42,1.77,1.02,3.8,1.91,5.98.78,1.93,1.64,3.61,2.46,5.04,5.53-8.49,17.71-24.68,39.29-36.54,25.81-14.18,50.19-14,60.34-13.35Z"/>
  </g>
  <g>
    <path class="cls-2" d="M245.61,341.66c4.91-7.8,11.04-18.73,16.49-32.5,4.06-10.26,9.25-23.67,11.2-41.81,1.61-14.94,3.52-32.65-5.61-51.46-2.5-5.16-8.39-16.94-21.49-25.7-4.21-2.82-27.26-17.41-48.3-7.02-8.04,3.97-12.91,10.17-15.54,14.24,0,0-1.72,2.44-3.62,6.71,0,0-3.74,8.29-4.67,17.69-1.79,18.08,17.73,45.07,17.73,45.07,19,26.28,32.06,27.96,44.95,52.25,4.78,9,7.39,17.08,8.86,22.53Z"/>
    <path class="cls-1" d="M242.66,268.01c1.19-7.65,4.6-35.55-12.85-61.62-8.87-13.24-19.78-21.04-26.89-25.24-1.49.47-3.2,1.11-5.02,2.01-1.61.79-3,1.63-4.17,2.42,7.63,4.22,22.27,13.68,33.77,31.47,13.75,21.27,15.1,42.2,15.16,50.95Z"/>
  </g>
</svg>